<?xml version="1.0" encoding="UTF-8"?>
<svg id="Animal" xmlns="http://www.w3.org/2000/svg" viewBox="0 0 505.88 475.54">
  <path d="m390.5,0l-3.88,3.29c-9.13,7.74-18.02,11.77-31.7,14.34-17.54,3.3-35.56,8.78-45.95,13.96-12.41,6.19-18.84,13.13-22.35,24.11-2.6,8.14-2.12,16.94.77,23.39,1.75,3.32,4.17,6.01,7.05,7.6,1.95,1.08,4.63,1.59,7.63,1.62.16,0,.29.01.45.01,6.73-.04,14.98-2.47,20.43-6.49,1.15-.92,1.98-1.78,2.18-2.39l-1.29-8.16c-.58-3.66-1.04-7.84-1.37-11.97-.68-6.33-.94-11.3-.79-15.07.01-1.06.05-1.97.14-2.63.07-.55.17-1.12.3-1.67.22-1.17.53-2.11.91-2.86.03-.06.05-.11.08-.17.02-.04.04-.09.07-.13.14-.28.28-.52.41-.69.3-.37.54-.65.75-.85l.58-.7,1.25.65c.29.12.6.27,1.01.46.42.2.9.48,1.42.81,6.79,3.89,27.46,25.99,36,38.56.21.31.42.6.62.9.26.36.54.72.82,1.09,1.27,1.6,2.55,3.18,3.76,4.64,1.07,1.25,2.14,2.48,3.19,3.61,2.79,2.71,5.64,4.83,8.65,6.42,1.3.56,2.93,1.39,4.66,2.36,2.53,1.36,5.18,2.93,6.8,4.09,5.67,4.05,10.94,9.81,15.23,16.35.07.1.14.2.2.29.26.39.52.83.78,1.25.12.2.25.39.37.59.26.42.51.87.77,1.31,1.23,2.13,2.36,4.33,3.36,6.56,1.72,3.74,3.16,7.53,3.91,10.5.68,2.67,1.48,5.14,1.79,5.5.04.05.08.06.11.05.13-.55.27-1.38.4-2.46.17-3.99-.21-11.74-.94-14.54-.54-2.09-.75-3.35-.62-3.86,0-.18.04-.31.1-.38l-.19-.99,1.36,1.68c.19.23.41.6.65,1.06,2.87,3.96,5.31,13.51,6.44,25.35l.45,4.74.44-.99c.76-1.72,1.4-3.34,1.93-4.95.74-2.47,1.35-5.28,1.8-8.28.36-3.01.5-6.42.51-10.66,0-3.77-.05-6.63-.25-8.95-1.03-5.34-2.48-7.82-6.27-10.71-1.81-1.38-3.29-2.8-3.29-3.17,0-.41.09-.61.46-.57.05-.02.15-.01.24,0-.06-.1-.09-.18-.03-.18.52,0,1.37.32,2.38.84,4.97,2,11.61,8.07,15.7,14.55.94,1.49,1.8,3.06,2.6,4.71,1.21,2.4,2.29,4.95,3.22,7.67,2.88,8.47,3.93,17.07,3.68,30.27l-.18,9.52c.1.47.24.75.42.79l.37-.47c.75-.95,2.73-4.53,4.41-7.96,1.62-3.33,3-6.56,4.15-9.76,1.97-5.65,3.3-11.41,4-17.23.43-4.02.54-8.14.34-12.46-.14-3.07-.43-6.1-.86-9.1-1.87-11.39-5.67-22.5-10.59-30.79-2.2-3.7-2.78-5.72-1.78-5.28.38.02,1.44.77,2.55,1.84.98.95,2.78,2.59,4.47,4.09.13.11.26.22.39.34,1.31,1,2.45,2.12,3.57,3.56,1.3,1.57,2.47,3.38,3.52,5.42l.94,1.84,1.53,2.83-.31-5.75c-.04-.55-.08-1.1-.14-1.65-2.32-19.82-14.59-38.26-34.16-51.17-3.71-2.45-6.75-4.78-6.75-5.18,0-.14.05-.24.15-.31-.1-.19.05-.24.44-.2.15-.23,1.06-.08,2.64.42,1.64.16,4.38.3,7.51.39.79.02,1.61.02,2.43.03,3.42-.22,6.83-.13,10.2.26,3.64.22,5.67.69,9.2,1.77.14.04.29.1.44.14.08.03.17.05.25.08,2.8.88,5.6,1.88,6.98,2.5.64.2,1.1.31,1.39.31l-1.6-1.95c-1.34-1.64-4.71-4.9-7.49-7.24-18.15-15.3-41.33-19.61-70.04-13.01-4.07.93-8.04,1.7-8.83,1.7-1.63,0-1.77-.83-.66-1.42l-.65.06.04-.02h-.04s.11-.07.11-.07h-.09l2.12-1.29h0s.01-.01.02-.02c.01,0,.03-.02.04-.03.18-.11.34-.24.51-.36,2.46-1.89,5.51-6.64,7.71-12.04.61-1.5,1.12-2.84,1.43-3.72.01-.05.01-.08.03-.12h0Z"/>
  <path d="m198.09,35.27h0c.71,0,1.42,0,2.12,0-.71-.01-1.41-.01-2.12,0h0Z"/>
  <path d="m436.94,37.9s-.06.06-.08.09c.01-.03.04-.07.08-.09h0Z"/>
  <path d="m197.76,40.5c-16.21-.06-33.45,5.59-46.5,15.23-2.13,1.57-3.81,3.08-4.23,3.74.38.11.81.23,1.33.35.89.06,2.34.32,4.08.72,3.42.63,7.08,1.67,10.86,3.03,2.04.66,3.95,1.34,5.49,1.97,12.25,4.99,26.27,14.49,37.41,25.35,5.07,4.91,9.7,10.19,13.9,15.83.04.05.08.11.12.16.52.7,1.04,1.4,1.54,2.11.21.29.41.58.61.87.32.45.64.91.95,1.37,1.97,2.87,3.83,5.84,5.59,8.88,12.7,21.41,19.45,45.5,21.6,76.12,2.38,33.86-5.08,78.32-16.41,97.81-1.42,2.44-2.25,4.55-2.34,5.65.23.14.78-.1,1.75-.65.61-.41,1.29-.86,2.06-1.41h0c3.71-2.66,10.68-11.77,17.81-22.85.37-.58.74-1.15,1.11-1.74.07-.11.14-.22.21-.33,4.23-6.76,8.48-14.18,12.21-21.42.5-.98,1-1.95,1.48-2.93.31-.61.62-1.25.93-1.89.43-.89.86-1.78,1.28-2.67.65-1.37,1.29-2.77,1.95-4.21,0-.01.01-.02.02-.04.75-1.66,1.49-3.36,2.23-5.06.13-.31.27-.62.4-.93.37-.86.73-1.72,1.09-2.59,4.61-11.16,8.41-22.43,11.22-33.29,1.15-4.73,2.23-9.59,3.09-13.93.13-.68.28-1.39.39-2.03,0,0,0,0,0-.01.43-2.48.79-4.92,1.09-7.31l.18-1.46.03-.31c-.35-.77-1.63-1.47-4.99-3.02-6.16-2.85-9.54-5.74-9.84-8.42-.14-.37-.22-.72-.22-1.04,0-.47.08-1,.23-1.59.02-.15.05-.3.08-.46.05-.24.25-.7.52-1.26.1-.25.23-.52.35-.79.12-.28.26-.57.41-.88.04-.08.07-.16.12-.24.28-.55.6-1.14.95-1.77.03-.05.06-.1.09-.16.2-.34.42-.71.63-1.08,1.06-1.79,2.36-3.86,4.02-6.38,2.52-3.82,5.07-8.22,5.92-10.18.75-2.04.97-3.8.83-5.84-.13-.76-.3-1.63-.52-2.74-5.94-29.41-23.31-54.51-49.8-71.93-15.17-9.98-28.13-14.26-43.35-14.31h0Z"/>
  <path d="m475.59,45.23c.07.19.1.33.08.43.01-.1-.01-.25-.08-.43Z"/>
  <path d="m329.54,47.15l.24.2s.1-.04.15-.04c.02,0,.07.04.11.05.82.21,4.26,3.5,8.1,7.53.66.69,1.33,1.41,2.01,2.15,3.32,3.59,6.64,7.4,8.6,10.03,2.04,2.74,3.94,5.61,5.46,8.14,2.33,3.71,3.68,6.64,3.44,7.92-.21,1.11-.32,1.12-1.36.08-1.02-1.02-1.69-1.03-7.27-.13-3.38.55-7.94,1-10.13,1-2.19,0-3.98.31-3.98.69,0,1.37-1.37.65-2.33-1.21-2.01-3.91-3.95-20.42-3.92-29.27-.03-1.79.01-3.31.15-4.33.11-1.07.3-1.8.55-2.21l.17-.6Z"/>
  <path d="m331.44,51.97v5.97c0,5.97.8,13.61,2.15,20.43.39,1.99.5,3.02,1.77,3.42.87-.08,4.16-.45,8.88-.99,4.97-.58,9.15-1.16,9.68-1.35-2-3.77-15.31-20.66-19.97-25.09l-2.5-2.38Z"/>
  <path d="m456.14,55.57s.03.03.04.05c-.01-.02-.03-.03-.04-.05h0Z"/>
  <path d="m256.93,57.83h0c-1.26.03-1.96.18-2.16.48l4.33,4.43c1,.95,2.15,2.17,3.37,3.5,7.12,7.51,12.39,14.43,17.12,22.5,1.96,3.34,4.6,8.62,6.61,12.99,1.24,2.51,2.22,4.64,2.71,5.98.3.44.55.66.74.62.3-1.09.6-2.81.65-4.17-.02-.45-.11-1.02-.21-1.61-.13-.54-.32-1.12-.57-1.78-2.77-7.51-9.46-17.44-17.43-25.87-2.64-2.79-3.87-4.38-3.46-5.3,0,0,0,0,0,0-.26-.37-.42-.62-.42-.72,0-.07,0-.14.02-.2.23-.97,2.22-1.32,7.3-1.32h5.13v-1.25l-.12-1.65-.11-1.47c-.36-.48-1-.79-2.15-1.25-5.7-2.28-10.52-3.34-16.96-3.75-1.9-.12-3.36-.18-4.43-.16h0Z"/>
  <path d="m134.32,64.27c-19.99-.07-39,7.35-54.63,22.17-3.57,3.39-8.05,8.22-9.95,10.73-4.85,6.42-11.37,19.87-13.45,27.76-1.34,5.07-2.62,13.91-2.51,16.53.56-.06,2.64-.66,4.85-1.41,1.03-.35,2.13-.67,3.27-.98,4.78-1.47,8.86-2.34,13.81-2.85.09-.01.19-.03.27-.04,3.84-.56,8.75-.86,13.94-.91,6.08-.19,12.09,0,17.47.61,3.39.25,5.91.71,9.97,1.58.23.05.46.1.69.15,9.13,1.91,18.18,4.89,26.9,8.81.01,0,.02.01.04.02.01,0,.02.01.04.02.8.36,1.59.72,2.38,1.1.01,0,.03.01.04.02.02.01.05.02.07.03,17.78,8.43,34.04,20.75,46.55,35.75,7.62,9.14,14.05,18.97,19.32,29.58,5.25,10.37,9.44,21.53,12.45,33.37,3.5,13.75,5.87,30.01,5.94,40.84v1.46c.18.89.35,1.39.49,1.24.32-.32,1.66-3.39,2.98-6.82.28-.73.56-1.48.83-2.25.31-.9.64-1.83.97-2.83,0,0,0-.01,0-.01.34-1.02.66-2.07.98-3.13,1.92-6.34,3.64-13.6,5.1-21.48.14-.77.28-1.54.42-2.33.03-.15.05-.29.08-.44.28-1.64.53-3.14.77-4.62,0,0,0-.01,0-.02.1-.65.2-1.3.29-1.95.79-5.49,1.42-11.07,1.86-16.61.18-2.83.31-5.86.4-9,.06-3.15.09-6.53.08-10.48-.01-3.6-.04-6.62-.09-9.25,0-.19-.01-.34-.01-.52,0-.11,0-.22-.01-.33-.03-.99-.07-1.95-.12-2.9-.07-.97-.13-1.94-.21-2.9-4.49-49.87-24.1-86.56-58.77-109.96-17.48-11.8-35.88-17.7-53.51-17.76h0Z"/>
  <path d="m277,70.93c-1.41,0-2.59.06-3.22.14.46,1.01,1.81,2.88,3.95,5.45,4.75,5.69,7.32,9.21,9.62,13.38,1.42,2.32,2.55,4.46,3.3,6.26l.83,2.01c.33.65.58,1.1.61,1.1.07,0,.98-1.25,2.06-2.79.26-.39.52-.77.79-1.14.78-1.14,1.45-2.16,1.88-2.87-.24-.32-.89-.7-1.72-.97-5.3-1.7-10.75-8.47-13.12-16.29l-1.29-4.25-.02-.02h-3.68,0Z"/>
  <path d="m459.18,89.15c.11.12.25.27.4.46-.16-.19-.29-.34-.4-.46Z"/>
  <path d="m416.92,248.47c-.56-4.53-1.02-12.46-1.02-17.61,0-.33,0-.66,0-.99-.06-1.44-.13-2.87-.19-4.29-.19-5.2-.41-9.91-.68-14.3-.24-3.63-.52-7.09-.85-10.46-1.57-13.75-4.23-27.86-8.09-43.02-7.54-29.66-17.76-50.74-32.7-67.49-2.89-3.24-6.73-7.74-8.53-10.01-1.81-2.27-6.4-8.03-10.21-12.8-8.05-10.08-22.49-24.98-25.87-26.68-.89-.45-1.58-.7-2.11-.71h0c-1.18-.03-1.62,1.12-1.93,3.92-.28,2.54,1.6,27.19,2.99,39.17.44,3.76-.59,5.17-1.4,1.92l-.43-1.71-4.26,2.76c-4.4,2.85-13.68,6.2-17.14,6.2-2.16,0-4.95,2.72-8.47,8.27-3.16,4.99-3.51,7.31-2.23,14.68,1.33,7.61,1.01,16.53-.76,21.69-.65,1.9-3.34,6.91-5.96,11.13-2.62,4.22-4.77,7.88-4.77,8.14,0,0,0,0,0,0,.45-.02,1.01-.07,1.7-.16.04,0,.09-.01.14-.02.44-.06.91-.13,1.4-.2.73-.12,1.41-.2,2.06-.26,4.53-.47,7.18.57,7.53,2.98,0,0,0,.01,0,.02.69,1.59.11,3.74-1.75,6.3-.84,1.16-1.56,2.22-1.88,2.77.71.28,1.7.58,2.79.82.26.06.51.1.76.14,1.78.26,3.73.38,5.28.24,5.95-.61,12.58-4.24,23.3-12.27,5.14-3.85,9.92-7.31,10.62-7.69.73-.4,1.18-.58,1.36-.57.03,0,.08-.04.09-.04.22,0,.13.23-.17.55-.11.14-.29.32-.48.5.86-.41,1.24-.39,1.24.02,0,.43-13.59,11.51-17.88,14.58-2.03,1.45-5.61,3.68-7.96,4.94-1.7.91-2.66,1.49-3.03,1.84,1.13-.21,2.91-.91,5.35-2.12.62-.31,1.27-.64,1.99-1.02.07-.04.14-.07.22-.11,1.89-1.01,4.1-2.26,6.65-3.75,12.45-7.3,19.5-10.91,21.89-11.22.2-.03.37-.06.52-.05.02,0,.04,0,.06,0,.03,0,.07,0,.1,0,.37,0,.51.09.44.24.57-.11.95-.1,1.11.06.4.4-.35.9-8.48,5.57l-5.59,3.21s-.01.06-.02.08l-.39,5.99c-.73,11.24-5.94,30.51-10.94,40.4-1.11,2.2-3.56,6.36-5.44,9.24-2.16,3.31-3.75,6.7-4.31,9.2-1.2,5.36-1.18,20.17.05,25.7l.81,3.68s.05.04.08.06c.04.02.08.03.13.03l1.6-3.53c.14-.31.3-.64.48-.98.33-.68.78-1.48,1.3-2.33.99-1.68,2.1-3.38,3.03-4.56.38-.48.75-.99,1.11-1.51,1.13-1.75,2.01-3.39,2.16-4.17.14-.69.28-1.14.43-1.36.25-.49.49-.35.69.3.4.31.7,1.73.7,4.04,0,11.89,3.07,27.74,6.8,35.04.69,1.35,1.22,2.36,1.69,3.22.29.41.58.79.87,1.14l1,1.17c.3-.26.37-1.5.4-3.56-.04-3.79.05-8.89.17-12.53-.05-.4-.1-.81-.16-1.18-.43-2.57-.29-3.42.33-2.67.03-.32.06-.5.09-.46.06.07.52,1.17,1.13,2.67.45.96.96,2.15,1.56,3.67,2.3,5.78,4.31,10.06,6.27,13.29.08.13.17.25.25.37.53.73,1.08,1.45,1.64,2.15.25.27.5.54.78.83,1.57,1.62,2.54,2.56,3.1,2.96.09.06.16.09.23.13l-.35-2.24c-.13-.86-.23-2-.31-3.24-.04-.36-.08-.72-.11-1.09-.59-5.06-.65-11.44-.02-15.44.03-.18.06-.32.09-.49.16-1.25.37-2.3.62-3.11.63-2.51,1.23-3.23,1.39-1.43.08.14.16.33.27.58.31.76.59,2.32.62,3.47,0,.4.07.8.18,1.24,1.2,2.7,3.6,6.11,7.9,11.5,6.91,8.64,10.75,14.06,12.8,18.76,1.98,4.16,2.76,7.76,2.75,11.68,0,2.51-.31,5.58-.68,6.82-.22.74-.32,1.37-.33,1.78l1.39-.99c1.16-.89,3.46-3.02,5.31-4.95,4.31-4.5,7.97-10.16,10.58-16.06,1.04-2.39,1.92-4.81,2.61-7.19.36-1.28.67-2.56.91-3.82.25-1.63.45-3.4.62-5.47.01-.19.04-.36.06-.54,0-.07,0-.13,0-.2,0-.61.02-1.15.05-1.63.11-2.86.62-4,1.14-2.85.52.51,1.03,2.41,1.09,4.24.38,1.2.88,2.52,1.43,3.76,1.62,2.09,4.11,9.73,4.19,12.87,0,.05,0,.09,0,.14.18.43.35.64.47.57.03-.02.07-.08.11-.13.17-.26.38-.68.59-1.14,1.01-2.39,2.64-7.69,3.8-12.28.54-2.45.98-4.79,1.29-7.1.19-3.28.2-7.89.16-16.18-.02-4.25.01-7.95.07-10.98-.05-1.22-.09-2.3-.12-3.3-.01-.14-.02-.3-.04-.43-.14-1.56-.15-2.58-.06-3.1,0-.28,0-.52,0-.67,0-.18.01-.27.03-.29,0,0,0-.02,0-.02.04-.05.14.22.26.61,0,.02.01.04.02.05.08.07.16.25.26.48.01,0,.02,0,.03,0,.29.31.86,2.14,1.26,4.06.35,1.66,1.47,4.43,2.64,6.6,1.36,2.15,2.81,4.47,3.22,5.16.07.11.12.18.17.2-.03-1.34-.31-4.39-.74-7.84Zm-80.01-135.79c-.27,2.88-.72,5.95-.99,6.83-1.08,3.56-3.97,6.25-9.25,8.64-2.9,1.31-6.13,2.82-7.17,3.35l-1.9.96v-1.48s-.21.08-.21.08v-.56l-.2.05.2-3.73c0-.19-.01-.3-.01-.51h0c0-.68.03-1.34.07-1.98.15-3.27.68-5.84,1.73-7.94.05-.1.1-.2.15-.3.04-.07.07-.13.11-.2,1.36-2.58,3.54-4.4,6.97-6.12.06-.03.12-.06.18-.09.8-.41,1.65-.78,2.56-1.12,1.57-.63,3.13-1.15,4.21-1.38,1.02-.28,1.8-.44,2.3-.37l1.11-.16v.03l.22-.03-.08.86.5-.06-.5,5.23Z"/>
  <path d="m333.85,110.36c.11.14.19.31.25.49-.06-.18-.14-.34-.25-.49Z"/>
  <path d="m422.53,137.62s.09.12.14.23c-.05-.12-.1-.2-.14-.23Z"/>
  <path d="m92.46,139.78c-23.79.24-46.38,8.18-64.37,23.47-5.07,4.31-12.06,12.89-15.87,19.47C4.59,195.92.37,212.68,0,228.5c0,.52,0,.98,0,1.53,0,1.33.02,2.45.03,3.63.28,8.84,1.81,17.21,4.69,24.3.97,2.39,2.17,4.78,3.53,7.12.09.16.18.31.28.47.04.07.08.13.12.2,2.17,3.56,4.76,6.98,7.65,10.19.43.47.86.94,1.31,1.41.58.61,1.16,1.2,1.74,1.78,7.77,7.65,17.28,13.7,26.97,16.67.35.11.64.18.96.28.59.16,1.18.32,1.77.46l1.88.45c2.81.5,4.86.24,7.69-.87,5.5-2.73,12.1-5.12,19.36-7.07.6-.16,1.19-.32,1.8-.48,4.77-1.25,9.73-2.29,14.87-3.1,7.34-1.23,14.62-1.96,21.05-2.04l4.08-.23c.21-.04.39-.08.54-.12.49-1.1-.75-3.33-2.78-8.06-6.02-14.04-15.64-25.43-25.98-30.78-8.27-4.28-13.98-5.84-22.83-6.24-6.4-.29-8.32-.12-12.08,1.08-2.46.78-4.61,1.28-4.77,1.12-.24-.24-.09-.61.34-1.07-.92-.18-.02-1.33,2.82-2.79,1.26-.65,2.71-1.17,4.28-1.58,1.28-.46,2.47-.67,4.16-.77,3.23-.38,6.81-.34,10.52.13,1.42.18,2.83.42,4.22.7,3.47.65,6.83,1.65,10.14,3.04,1.04.43,2.07.89,3.09,1.39.45.21.89.44,1.33.66,0,0,0,0,0,0,8.94,4.57,16.66,11.49,22.36,20.29.42.65.85,1.36,1.29,2.11,3.3,5.27,6,11.18,8.05,17.71l1.04,3.3,3.52.32.68.06c1.32.11,2.66.24,4.01.38,19.9,1.98,34.05,5.43,48.8,11.83,10.57,4.58,20.87,11.52,26.33,17.7h0s0,0,0,0c1.45,1.27,2.57,1.85,3.8,1.68,1.34-.41,3.03-1.69,5.46-3.95,2.24-2.09,5.59-4.94,7.44-6.34l3.03-2.29.16-.13v-6.1l-.1-3.51-.11-3.68c-.09-2.87-.26-5.99-.45-9.01-3.36-39.96-18.05-74.15-43.02-99.84-12.13-12.49-24.35-21.33-39.31-28.45-16.75-7.97-34.15-11.99-51.01-12.17h0c-.77,0-1.54,0-2.31,0h0Z"/>
  <path d="m49.02,143.2c-.18.19-.41.39-.69.6.28-.21.51-.41.69-.6Z"/>
  <path d="m283.68,159.52c-1.13,0-2.26.37-2.55,1.12-.12.32-.13.62-.05.9,1.33.95,4.14.84,5.12-.33.04-.05.07-.09.1-.14,0-.15-.03-.29-.08-.42-.29-.74-1.41-1.12-2.54-1.12h0Z"/>
  <path d="m327.69,164.38c-.27,0-2.73,1.36-5.47,3.02-9.05,5.49-11.88,6.67-15.98,6.67-2.08,0-3.98-.31-4.22-.69-.24-.38-1.81-.69-3.5-.69-2.92,0-3.07.1-3.07,1.99,0,6.63-4.83,27.73-9.7,42.39-8.43,25.38-22.22,51.74-36.85,70.44-1.01,1.29-1.82,2.4-2.33,3.15.94-.43,2.51-1.24,4.25-2.19,2.54-1.39,6.62-3.95,9.07-5.67,8.62-6.06,24.52-23.45,38.23-41.83,3.1-4.15,4.94-6.71,6.14-8.66,1-1.71,1.59-3.14,2.05-4.78.1-.47.19-.96.27-1.5.52-3.41,1.95-6.43,5.55-11.78.31-.46.62-.97.93-1.47.81-1.36,1.58-2.72,2.32-4.09,4.73-9.05,9.02-21.65,11.22-32.96.33-1.84.64-3.7.9-5.42,0,0,0-.02,0-.03.07-.45.11-.85.17-1.28.14-1.14.23-2.18.3-3.08.01-.98-.08-1.56-.29-1.56h0Z"/>
  <path d="m305.14,238.33l-4.02,5.43c-5.18,6.98-14.61,18.27-21.93,26.24-8.52,9.28-16.11,15.37-28.21,22.66-23.25,14-35.33,24.56-41.08,35.91-4.56,9-5.83,21.4-3.04,29.68.43,1.28.92,2.49,1.48,3.65,4.05,7.53,11.42,13.07,21.3,15.32.6.14,1.37.25,2.21.35,3.44.32,8.5.42,13.78.33,3.36-.07,6.81-.21,10-.43,3.91-.3,7.59-.71,10.55-1.24.89-.16,1.93-.36,2.99-.57.93-.19,1.85-.37,2.85-.58,0,0,0,0,.01,0,2.77-.58,5.68-1.23,8.1-1.81.12-.03.25-.06.36-.09.62-.15,1.17-.29,1.71-.42l1.45-.37c4.33-1.13,5.61-1.75,6.04-2.71l.58-2.2c.18-.67.34-1.48.48-2.37.01-.09.03-.17.04-.26.05-.33.1-.67.14-1.02.03-.23.06-.46.09-.7.11-.89.2-1.84.28-2.82.03-.43.06-.85.09-1.29,0-.14.02-.27.03-.41.39-7.02.03-14.93-1.05-19.01-1.99-7.54-4.97-12.3-12.06-19.29-2.89-2.85-4.57-4.72-5.07-5.65-.1-.1-.2-.2-.28-.28-.79-.69-.91-1.06-.49-1.08.33-.14,1.39.2,3.2,1.13.64.33,1.27.69,1.89,1.07,5.21,3.03,9.87,8.11,13.18,14.12,1.73,2.89,3.11,5.92,3.95,8.87,2.34,8.21,2.22,20.18-.28,28.48-.26.88-.45,1.66-.53,2.21,2.12-.27,14.67-4.16,15.63-4.9.83-.63,1.63-6.25,2.12-13.55.75-11.86.43-26.55-1.02-40.86-1.13-11.2-1.74-25.16-1.56-32.7.01-1.73.06-3.23.15-4.25.01-.1.02-.17.03-.26.07-.61.15-1.1.25-1.36.05-.14.1-.26.15-.37.03-.13.07-.24.11-.33.46-1.12.78-1.12,1.05.38.34,1.01.62,3.36.85,7.12.26,4.28,1.24,16.12,2.18,26.3,1.85,20.13,2.15,36.02.95,50.04-.32,3.7-.53,6.91-.55,8.25,1.43-.16,21.39-5.5,27.86-7.45.91-.44,1.36-1.65,2.23-6.07.36-2.06.85-4.67,1.43-7.61.29-1.52.57-2.97.86-4.33.05-.26.11-.52.16-.77.13-.64.27-1.29.41-1.9,1.49-6.94,2.6-10.7,4.44-15.14.5-1.29,1.02-2.57,1.6-3.86.14-.32.27-.64.4-.96,2.26-5.82,4.21-12.6,5.38-18.57.13-.73.27-1.46.39-2.22.19-1.18.36-2.39.52-3.62l.05-.38c.04-.4.08-.8.11-1.18l.32-4.15c-.39-1.07-1.65-3.09-3.15-4.99-1.81-2.28-4-5.05-4.87-6.15l-1.58-1.99.42,5.54c.48,6.34,1.38,10.49,3.19,14.76l1.27,2.99-1.55-.47c-6.34-1.92-11.5-6.61-15.13-13.78l-2.12-4.18.35,5.19c.19,2.86.58,6.09.85,7.2l.5,2-2.95-1.65c-7.69-4.32-12.38-15.86-14.12-34.72l-.33-3.57c-.04-.41-.09-.8-.12-1.21l-.41-4.37-1.93,3.02c-2.4,3.75-4.55,9.85-4.64,13.16-.04,1.37-.29,3.27-.57,4.22l-.5,1.73-1.5-2.42c-2.82-4.54-6.35-17.69-6.35-23.64v-2.78Z"/>
  <path d="m421.57,270.6c.07.09.13.15.18.19-.05-.04-.11-.1-.18-.19Z"/>
  <path d="m398.02,283.11l-.44,2.76c-1.63,10.13-6.47,19.77-13.26,26.4-5,4.88-15.68,12.05-16.6,11.14-.06-.06.05-.42.24-.89l-.87.49v-.02s-.2.12-.2.12l.67-.94,1.57-2.79.66-1.29c.1-.19.19-.39.29-.58.69-1.49,1.31-3.11,1.73-4.5.13-.53.19-.97.16-1.26-.3.21-.99,1.21-2.32,3.19-1.54,2.28-4.46,5.93-6.48,8.11l-3.69,3.95-.11,10.13c-.06,5.57-.31,11.19-.55,12.49-.22,1.17-.39,1.83.21,2.13l.84-.15c.7-.13,2.36-.35,4.26-.59,1.2-.16,2.47-.33,3.77-.49,2.55-.31,6.2-.56,9.09-.66.93-.04,1.78-.06,2.48-.06h1.4c2.07-.1,3.18-.37,3.35-.82.18-.48.95-4.6,1.72-9.17,1.81-10.76,7.61-34.18,11.06-44.7,1.75-5.34,2.35-7.32,2.26-8.83-.08-.33-.18-.66-.33-1.02l-.9-2.14Z"/>
  <path d="m120.35,288.41c-9.51.03-19.8.58-24.6,1.48-25.55,4.8-46.61,15.31-63.84,31.84-11.52,11.06-18.49,21.48-22.64,33.82-7.21,21.47-5.59,41.05,4.9,58.98,6.78,10.76,18.71,23.3,29.27,30.36,13.66,9.13,29.15,15.67,44.63,18.93.21.04.43.09.64.13,1.98.37,4.05.73,5.86,1.02.17.02.34.05.51.07,3.22.44,8.21.72,13.24.84,5.93.04,12.47-.09,15.04-.36l2.26-.31c-.25-.32-.9-.71-1.99-1.16-4.5-1.86-14.9-9.29-20.18-14.4-10.65-10.31-16.86-21.69-19.62-36.16-.02-.12-.04-.24-.06-.35-.35-1.88-.65-3.8-.89-5.79-.76-6.34-.6-12.65.43-18.79.19-2.8.56-4.62,1.28-7.09.53-2.1,1.23-4.13,2.14-6.37,1.52-3.95,3.35-7.68,5.51-11.21,2.91-4.96,6.15-9.02,10.55-13.36,4.14-4.09,8.57-7.61,13.53-10.73,3.17-2.03,6.51-3.86,10.02-5.49.02-.01.04-.02.07-.03,1.8-.84,3.65-1.62,5.54-2.34,5.98-2.36,12.04-4.02,19.06-5.16,6.21-1.08,12.75-1.7,19.61-1.85,6.94-.33,9.56-.51,12.08-1.3,1.01-.38,2.16-.86,3.63-1.49.03-.01.06-.02.09-.04.35-.15.71-.29,1.08-.44.22-.09.44-.18.66-.27,2.61-1.11,5.34-2.06,8.72-3,2.34-.7,4.46-1.22,6.08-1.53.82-.19,1.66-.38,2.56-.58l1.23-.27c.05-.1.08-.22.08-.35l-1.46-1.52c-11-11.42-41.38-22.34-70.1-25.21-3.8-.38-9.23-.54-14.93-.52h0Z"/>
  <path d="m364.2,288.75l-.46,4.44c-.72,6.93-3.09,15.43-6.12,21.98-1.53,3.3-3.36,7.64-4.06,9.65-.46,1.32-.74,2.21-.75,2.66.63-.44,1.97-1.77,4.09-3.92.17-.17.25-.25.43-.44,3.2-3.46,7.18-8.07,9.97-11.74,1.62-2.12,3.05-4.24,3.91-5.72.32-.6.55-1.11.69-1.54.03-.22.03-.43.03-.65-.68-2.69-4.78-11.14-6.35-13.04l-1.37-1.67Z"/>
  <path d="m401.73,303.12c-.12.13-.23.23-.32.29.09-.07.2-.17.32-.29Z"/>
  <path d="m210.94,319.08l-3.67.49c-5.51.74-14.41,3.58-19.92,6.35-14.53,7.32-26.77,19.96-31.92,32.97-5.13,12.96-4.02,31.1,2.61,44.88,1.95,3.8,4.35,7.35,7.16,10.63,1.19,1.36,2.45,2.69,3.8,3.97.97.93,1.87,1.75,2.75,2.52,3.34,2.84,7.07,5.4,11.19,7.65,1.37.72,2.84,1.45,4.53,2.26.36.17.73.34,1.1.51,9.44,4.17,21.09,7.2,33.52,8.73,2.09.23,4.21.41,6.36.56,5.74.3,13.65.26,21.15-.05.26-.01.52-.02.79-.04.52-.02,1.01-.05,1.52-.08,3.27-.18,6.35-.4,8.97-.64,11.16-1.26,23.42-3.54,34.57-6.42,9.76-2.65,19.65-6.08,30.78-10.6,21.28-8.64,38.75-14.21,55.08-17.55,24.12-4.94,46.26-6.34,65.97-4.27.19.02.4.04.59.06.08,0,.15.02.22.03,7.02.77,13.72,1.99,20.09,3.65.27.07.53.14.8.21.74.2,1.49.4,2.22.61.65.19,1.29.38,1.93.57.44.14.89.27,1.33.41.56.18,1.11.36,1.66.55.62.21,1.24.41,1.85.63.2.07.4.15.6.22,8.27,2.97,15.89,6.77,22.79,11.41,1.44.97,2.73,1.8,3.74,2.43.46.22.79.35.79.24,0-.32-2.16-3.82-4.8-7.78-20-30.04-53.84-51.31-91.77-57.68-10.06-1.69-24.99-2.68-33.92-2.25-15.51.75-25.9,3.06-70.58,15.7-27.94,7.91-33.23,9.17-44.89,10.69-10.24,1.34-26.95,1.38-33.1.07-6.14-1.3-12.53-4.63-16.5-8.6-7.53-7.53-10.33-19.96-8.21-32.05.12-1.39.26-2.65.45-3.55,1.03-4.84,3.5-10.33,6.54-14.56.08-.11.14-.21.22-.32.45-.69.94-1.43,1.26-1.96.14-.24.24-.44.34-.63h0Z"/>
  <path d="m169.72,328.55c-5.49-.02-16.31,1.52-23.53,3.4-28.73,7.47-49.98,26.48-56.43,50.49-2.07,7.7-2.23,22.88-.34,31.82.87,4.12,2.09,8.05,3.63,11.78,1.45,3.35,3.11,6.62,4.87,9.43.1.16.19.31.29.47.46.72.92,1.41,1.38,2.06,3.22,4.51,9.85,11.07,15.28,15.27,1.84,1.35,3.76,2.64,5.78,3.88,10.9,6.49,26.54,12.13,42.16,15.3.08.01.16.04.24.05,3.99.8,7.98,1.45,11.88,1.9,2.81.33,5.08.59,6.77.79,5.02.34,11.47.44,20.43.32,7.27-.09,11.91-.21,15.83-.49,1.15-.09,2.18-.19,3-.29,2.86-.37,5.73-.79,8.63-1.25,20.19-3.32,44.31-9.58,75-19.44,29.84-9.58,47.58-14.26,65.48-17.26,11.7-1.96,19.58-2.84,28.83-3.03,2.61-.1,5.2-.16,7.78-.16,5.81,0,11.08.28,16.05.85,8.39.73,14.31,2.1,21.5,4.73,1.8.66,3.37,1.18,4.45,1.5.4.11.75.2.98.24-.09-1.24-12.31-13.08-16.66-16.08-10.54-7.29-25.18-13.31-38.49-15.84l-6.49-1.23-9.43,1.93c-11.62,2.38-31.94,9.08-47.29,15.6-35.07,14.88-64.01,20.91-95.67,19.94-24.21-.74-41.05-4.76-56.13-13.41-15.41-8.83-25.74-21.58-30.23-37.31-.39-1.37-.71-2.97-.96-4.72-.24-1.26-.41-2.53-.52-3.96-.01-.1-.03-.19-.04-.29-.57-4.34-.51-8.89.12-13.47.44-4.83,1.48-8.75,3.51-14.06,1.23-3.22,2.99-6.58,5.11-9.91.92-1.52,1.9-3,2.95-4.44.79-1.08,1.9-2.41,3.17-3.83,2.83-3.33,5.96-6.43,9.2-9.1.69-.59,1.35-1.14,1.93-1.58l.42-.32.1-.08-3.51-.17c-.32-.01-.66-.02-1.02-.02h0Z"/>
  <path d="m355.09,331.03c-.49-.03-1.17.47-2.11,1.32-1.96,1.79-2.37,2.91-4.24,11.83-1.04,4.96-1.82,8.82-1.96,9.67,0,.01.02.02.03.03.06.04.13.06.21.06.01,0,.02,0,.03,0,.34,0,2.31-.35,4.41-.77,3.49-.7,3.89-.97,4.27-2.86.28-1.41.41-6.16.4-10.82,0-1.71-.02-3.37-.06-4.88-.03-.81-.06-1.56-.09-2.24-.18-.89-.46-1.31-.88-1.34h0Z"/>
  <path d="m389.33,438.03h0c-1.46-.02-3.74.24-8.05.77-9.24,1.13-22.31,3.51-24.02,4.34l2.43,1.63c2.05,1.37,5.44,4.37,7.54,6.66,1.19,1.3,2,2.16,2.69,2.78,1.6,1.32,2.5,1.37,4.93,1.42.9.02,1.73-.01,2.47-.1,0,0,.01,0,.02,0,1.26-.17,2.28-.49,2.88-.91h0c.15-.11.29-.21.41-.33.09-.08.17-.17.24-.25.07-.08.14-.16.2-.24.08-.11.16-.22.23-.33,0-.01.01-.02.02-.03.2-.35.34-.72.41-1.12-.15-1.62-1.38-3.53-3.67-5.41-1.21-.99-1.73-1.64-1.78-1.95-.44-.3-.69-.57-.56-.7.22-.22.93-.01,1.8.38.01-.01.02-.01.04-.01.25,0,.89.37,1.65.9.44.26.87.54,1.28.84.01,0,.03.01.04.03.06.04.1.08.15.12.96.69,1.81,1.42,2.19,2,.37.56.61,1.17.74,1.83,0,0,0,0,0,0,0,.03.01.06.02.09.08.34.12.69.12,1.05.02.41,0,.81-.06,1.17,0,1.07.02,1.78.12,2.24.32.15.86.16,1.73.16,1.74,0,2.77-.53,4.11-2.13.69-.81,1.16-1.48,1.43-2.12.16-1.55-.34-3.27-1.52-4.87-1.5-2.03-1.43-2.73-.35-2.08-.01-.06-.03-.12-.03-.15,0-.06.02-.1.07-.11.09-.35.57-.13,1.3.64.55.43,1.08,1.12,1.51,1.94.24.36.44.7.61,1.02.78,1.07,1.05,2.02,1.05,3.34,0,1.08.09,1.79.3,2.14.44-.28,1.05-.87,1.85-1.83.98-1.16,1.53-2.44,1.68-3.77-.01-.37-.04-.77-.08-1.23-.55-2.64-2.33-5.31-5.03-6.89-1.03-.61-1.68-.91-3.14-.93h0Z"/>
  <path d="m351.92,444.5l-4.87,1.24c-4.89,1.25-26.66,7.76-30.44,9.1,1.61.17,3.59.37,5.98.59,5.33.49,12.18,1.41,15.23,2.03,2.36.48,6.31,1.6,10.69,2.97.38.11.76.23,1.14.35,3.95,1.19,8.04,2.58,12.28,4.19,2.42.88,4.63,1.73,6.34,2.46.38.16.68.29,1.02.43,3.31,1.31,4.85,1.78,5.32,1.48-.15-.41-.32-.86-.55-1.41-2.91-6.95-12.23-17.63-18.71-21.41l-3.44-2.01Z"/>
</svg>